<?xml version="1.0" standalone="no"?>
<!DOCTYPE svg PUBLIC "-//W3C//DTD SVG 20010904//EN"
 "http://www.w3.org/TR/2001/REC-SVG-20010904/DTD/svg10.dtd">
<svg version="1.0" xmlns="http://www.w3.org/2000/svg"
 width="79.000000pt" height="54.000000pt" viewBox="0 0 79.000000 54.000000"
 preserveAspectRatio="xMidYMid meet">

<g transform="translate(0.000000,54.000000) scale(0.100000,-0.100000)"
fill="#000000" stroke="none">
<path d="M194 451 c-40 -25 -80 -51 -90 -58 -15 -10 4 -12 102 -12 115 -1 122
0 143 23 25 26 26 25 -39 40 -15 3 -30 16 -35 30 l-10 24 -71 -47z"/>
<path d="M424 421 c-58 -26 -87 -72 -92 -142 -2 -31 0 -65 5 -74 9 -16 12 -15
32 6 13 14 21 36 21 59 0 82 50 110 199 110 102 0 111 2 125 22 9 12 16 26 16
30 0 5 -60 8 -132 8 -108 0 -141 -4 -174 -19z"/>
<path d="M436 315 c-9 -13 -16 -35 -16 -49 0 -36 -19 -73 -49 -93 -20 -13 -53
-18 -141 -21 -117 -4 -150 -15 -150 -49 0 -10 27 -13 123 -13 67 0 139 5 159
10 81 23 139 120 118 199 -12 47 -21 51 -44 16z"/>
<path d="M462 128 l-22 -22 42 -11 c33 -8 44 -15 46 -32 2 -13 7 -23 12 -23 8
0 156 93 169 106 2 2 -47 4 -110 4 -105 0 -116 -2 -137 -22z"/>
</g>
</svg>
