<?xml version="1.0" standalone="no"?>
<!DOCTYPE svg PUBLIC "-//W3C//DTD SVG 20010904//EN"
 "http://www.w3.org/TR/2001/REC-SVG-20010904/DTD/svg10.dtd">
<svg version="1.0" xmlns="http://www.w3.org/2000/svg"
 width="4166.000000pt" height="2916.000000pt" viewBox="0 0 4166.000000 2916.000000"
 preserveAspectRatio="xMidYMid meet">

<g transform="translate(0.000000,2916.000000) scale(0.100000,-0.100000)"
fill="#000000" stroke="none">
<path d="M33965 17243 c-12 -11 -15 -24 -9 -42 4 -14 9 -113 11 -218 l4 -193
-54 0 -55 0 -26 -87 c-15 -49 -29 -94 -31 -100 -3 -10 -56 -13 -220 -13 l-215
0 0 -155 0 -155 -555 0 -555 0 0 -100 0 -100 -70 0 -70 0 0 -80 0 -80 30 0 30
0 0 -1060 0 -1060 -465 0 -465 0 -2 -1039 -3 -1038 -370 163 c-203 90 -437
195 -520 232 l-150 68 -3 1006 -2 1007 -63 4 c-34 2 4 4 86 5 l147 2 0 70 0
70 -145 0 -145 0 0 200 0 200 -630 0 -630 0 0 -200 0 -200 -210 0 -210 0 0
200 0 200 -100 0 -100 0 0 -200 0 -200 -110 0 -110 0 0 200 0 200 -115 0 -115
0 0 -200 0 -200 -245 0 -245 0 0 -70 0 -70 318 -2 317 -3 -277 -2 -278 -3 0
-1400 0 -1400 -240 0 c-207 0 -240 2 -240 15 0 11 -11 15 -40 15 l-40 0 0 405
0 405 40 0 c36 0 40 3 40 25 0 23 -4 25 -40 25 l-40 0 0 405 0 405 40 0 c38 0
40 2 40 30 0 28 -2 30 -40 30 l-40 0 0 400 0 400 40 0 c38 0 40 2 40 30 0 28
-2 30 -40 30 l-40 0 0 400 0 400 40 0 c38 0 40 2 40 30 0 28 -2 30 -40 30
l-40 0 0 400 0 400 40 0 c38 0 40 2 40 30 0 28 -2 30 -40 30 l-40 0 0 415 0
415 70 0 70 0 0 30 c0 28 2 30 40 30 l40 0 0 85 0 85 -700 0 -700 0 0 100 0
100 25 0 c20 0 25 5 25 25 l0 25 -375 0 -375 0 0 -25 c0 -18 5 -25 20 -25 19
0 20 -7 20 -100 l0 -100 -170 0 -170 0 0 -85 0 -85 35 0 c32 0 35 -2 35 -30
l0 -30 75 0 75 0 0 -415 0 -415 -45 0 c-43 0 -45 -1 -45 -30 0 -29 2 -30 45
-30 l45 0 0 -400 0 -400 -45 0 c-43 0 -45 -1 -45 -30 0 -29 2 -30 45 -30 l45
0 0 -400 0 -400 -45 0 c-43 0 -45 -1 -45 -29 0 -28 3 -30 43 -33 l42 -3 3
-397 2 -398 -45 0 c-43 0 -45 -1 -45 -29 0 -28 3 -30 43 -33 l42 -3 3 -402 2
-403 -45 0 c-41 0 -45 -2 -45 -24 0 -22 5 -25 43 -28 l42 -3 0 -400 0 -400
-42 -3 c-40 -3 -43 -5 -43 -33 0 -28 2 -29 45 -29 l45 0 0 -325 0 -325 -240 0
-240 0 0 1255 0 1255 -955 0 -955 0 0 -915 0 -916 -157 3 -158 3 -3 2853 -2
2852 -110 0 -110 0 0 -74 0 -74 -205 -51 c-112 -28 -209 -51 -215 -51 -5 0
-10 20 -10 45 l0 45 -115 0 -115 0 0 -75 0 -74 -37 -10 c-80 -21 -367 -91
-375 -91 -4 0 -8 25 -8 55 l0 55 -115 0 -115 0 0 -84 c0 -72 -3 -85 -17 -90
-34 -10 -396 -96 -404 -96 -5 0 -9 20 -9 45 l0 45 -110 0 -110 0 0 -74 0 -74
-207 -51 c-115 -28 -211 -51 -215 -51 -5 0 -8 16 -8 35 l0 35 -115 0 -115 0 0
-2800 0 -2800 -162 2 -163 3 -3 1493 -2 1492 -595 0 -595 0 0 -920 0 -920
-615 0 -615 0 0 785 0 785 -75 0 -75 0 0 260 0 260 45 0 c41 0 45 2 45 25 l0
25 -200 0 -200 0 0 80 c0 73 -2 80 -20 80 -18 0 -20 -7 -20 -80 l0 -80 -65 0
-65 0 0 415 c0 362 -2 415 -15 415 -13 0 -15 -53 -15 -415 l0 -415 -80 0 c-79
0 -80 0 -80 -25 0 -23 3 -25 50 -25 l50 0 0 -260 0 -260 -405 0 -405 0 0 -595
0 -595 -396 -2 -397 -3 -202 -747 c-111 -410 -205 -754 -208 -762 -6 -15 -49
-16 -419 -14 l-413 3 -3 2483 -2 2482 -545 0 -545 0 0 90 0 90 30 0 c27 0 30
3 30 30 l0 30 -410 0 -410 0 0 -30 c0 -27 3 -30 30 -30 l30 0 0 -1935 0 -1935
-257 2 -258 3 -3 643 -2 642 95 0 95 0 0 55 0 55 -650 0 -650 0 0 390 0 390
-125 0 -125 0 0 80 0 80 -275 0 -275 0 0 -80 0 -80 -225 0 -225 0 0 -1385 0
-1385 -735 0 -735 0 0 -600 0 -600 16545 0 16545 0 0 375 0 375 -629 0 -629 0
-6 28 c-7 34 -256 1699 -256 1712 0 6 -102 10 -270 10 l-270 0 0 730 0 730 35
0 35 0 0 65 0 65 -130 0 -130 0 0 285 c0 247 -2 285 -15 285 -13 0 -15 -38
-15 -285 l0 -285 -95 0 -95 0 0 230 c0 147 -4 230 -10 230 -6 0 -10 -83 -10
-230 l0 -230 -545 0 -545 0 0 -65 0 -65 40 0 40 0 -2 -1477 -3 -1478 -620 0
-620 0 -3 663 -2 662 -350 0 -350 0 0 1625 0 1625 30 0 30 0 0 80 0 80 -70 0
-70 0 0 100 0 100 -80 0 -80 0 0 255 0 254 -97 3 -98 3 -3 184 c-1 116 1 188
8 195 17 17 12 64 -9 76 -25 13 -27 13 -46 -7z m-8865 -1098 l0 -215 -55 0
-55 0 0 215 0 215 55 0 55 0 0 -215z m510 0 l0 -215 -60 0 -60 0 0 215 0 215
60 0 60 0 0 -215z m500 0 l0 -215 -55 0 -55 0 0 215 0 215 55 0 55 0 0 -215z
m510 0 l0 -215 -55 0 -55 0 0 215 0 215 55 0 55 0 0 -215z m-6830 -270 l0
-195 -80 0 -80 0 0 195 0 195 80 0 80 0 0 -195z m660 0 l0 -195 -85 0 -85 0 0
195 0 195 85 0 85 0 0 -195z m650 0 l0 -195 -80 0 -80 0 0 195 0 195 80 0 80
0 0 -195z m660 0 l0 -195 -85 0 -85 0 0 195 0 195 85 0 85 0 0 -195z m10740
-455 l0 -140 -50 0 -50 0 0 140 0 140 50 0 50 0 0 -140z m300 0 l0 -140 -50 0
-50 0 0 140 0 140 50 0 50 0 0 -140z m280 0 l0 -140 -50 0 -50 0 0 140 0 140
50 0 50 0 0 -140z m300 0 l0 -140 -55 0 -55 0 0 140 0 140 55 0 55 0 0 -140z
m320 0 l0 -140 -50 0 -50 0 0 140 0 140 50 0 50 0 0 -140z m300 0 l0 -140 -50
0 -50 0 0 140 0 140 50 0 50 0 0 -140z m-8900 -145 l0 -215 -55 0 -55 0 0 215
0 215 55 0 55 0 0 -215z m510 0 l0 -215 -60 0 -60 0 0 215 0 215 60 0 60 0 0
-215z m500 0 l0 -215 -55 0 -55 0 0 215 0 215 55 0 55 0 0 -215z m510 0 l0
-215 -55 0 -55 0 0 215 0 215 55 0 55 0 0 -215z m-6830 -140 l0 -195 -80 0
-80 0 0 195 0 195 80 0 80 0 0 -195z m660 0 l0 -195 -85 0 -85 0 0 195 0 195
85 0 85 0 0 -195z m650 0 l0 -195 -80 0 -80 0 0 195 0 195 80 0 80 0 0 -195z
m660 0 l0 -195 -85 0 -85 0 0 195 0 195 85 0 85 0 0 -195z m10740 -205 l0
-140 -50 0 -50 0 0 140 0 140 50 0 50 0 0 -140z m300 0 l0 -140 -50 0 -50 0 0
140 0 140 50 0 50 0 0 -140z m280 0 l0 -140 -50 0 -50 0 0 140 0 140 50 0 50
0 0 -140z m300 0 l0 -140 -55 0 -55 0 0 140 0 140 55 0 55 0 0 -140z m320 0
l0 -140 -50 0 -50 0 0 140 0 140 50 0 50 0 0 -140z m-8600 -545 l0 -215 -55 0
-55 0 0 215 0 215 55 0 55 0 0 -215z m510 0 l0 -215 -60 0 -60 0 0 215 0 215
60 0 60 0 0 -215z m500 0 l0 -215 -55 0 -55 0 0 215 0 215 55 0 55 0 0 -215z
m510 0 l0 -215 -55 0 -55 0 0 215 0 215 55 0 55 0 0 -215z m-6830 10 l0 -195
-80 0 -80 0 0 195 0 195 80 0 80 0 0 -195z m660 0 l0 -195 -85 0 -85 0 0 195
0 195 85 0 85 0 0 -195z m650 0 l0 -195 -80 0 -80 0 0 195 0 195 80 0 80 0 0
-195z m660 0 l0 -195 -85 0 -85 0 0 195 0 195 85 0 85 0 0 -195z m10740 25 l0
-140 -50 0 -50 0 0 140 0 140 50 0 50 0 0 -140z m300 0 l0 -140 -50 0 -50 0 0
140 0 140 50 0 50 0 0 -140z m280 0 l0 -140 -50 0 -50 0 0 140 0 140 50 0 50
0 0 -140z m300 0 l0 -140 -55 0 -55 0 0 133 c0 74 3 137 7 140 3 4 28 7 55 7
l48 0 0 -140z m-4867 -217 c-111 -2 -295 -2 -410 0 -114 1 -23 2 202 2 226 0
319 -1 208 -2z m285 0 c-16 -2 -40 -2 -55 0 -16 2 -3 4 27 4 30 0 43 -2 28 -4z
m7832 -198 l0 -125 -55 0 -55 0 0 125 0 125 55 0 55 0 0 -125z m270 0 l0 -125
-60 0 -60 0 0 125 0 125 60 0 60 0 0 -125z m-28390 60 l0 -55 -55 0 -55 0 0
55 0 55 55 0 55 0 0 -55z m190 0 l0 -55 -55 0 -55 0 0 55 0 55 55 0 55 0 0
-55z m210 0 l0 -55 -50 0 -50 0 0 55 0 55 50 0 50 0 0 -55z m-400 -225 l0 -50
-55 0 -55 0 0 50 0 50 55 0 55 0 0 -50z m190 0 l0 -50 -55 0 -55 0 0 50 0 50
55 0 55 0 0 -50z m11090 -185 l0 -195 -80 0 -80 0 0 195 0 195 80 0 80 0 0
-195z m660 0 l0 -195 -85 0 -85 0 0 195 0 195 85 0 85 0 0 -195z m650 0 l0
-195 -80 0 -80 0 0 195 0 195 80 0 80 0 0 -195z m660 0 l0 -195 -85 0 -85 0 0
195 0 195 85 0 85 0 0 -195z m14870 -40 l0 -125 -55 0 -55 0 0 125 0 125 55 0
55 0 0 -125z m-11530 -120 l0 -215 -55 0 -55 0 0 215 0 215 55 0 55 0 0 -215z
m510 0 l0 -215 -60 0 -60 0 0 215 0 215 60 0 60 0 0 -215z m500 0 l0 -215 -55
0 -55 0 0 215 0 215 55 0 55 0 0 -215z m510 0 l0 -215 -55 0 -55 0 0 215 0
215 55 0 55 0 0 -215z m-18110 135 l0 -50 -55 0 -55 0 0 50 0 50 55 0 55 0 0
-50z m11280 -670 l0 -200 -80 0 -80 0 0 200 0 200 80 0 80 0 0 -200z m658 -2
l2 -198 -85 0 -85 0 0 193 c0 107 3 197 7 201 4 4 41 5 83 4 l75 -3 3 -197z
m652 2 l0 -200 -80 0 -80 0 0 200 0 200 80 0 80 0 0 -200z m658 -2 l2 -198
-85 0 -85 0 0 193 c0 107 3 197 7 201 4 4 41 5 83 4 l75 -3 3 -197z m3342
-268 l0 -220 -55 0 -55 0 0 220 0 220 55 0 55 0 0 -220z m510 0 l0 -221 -57 3
-58 3 -3 205 c-1 112 0 210 2 217 4 8 25 13 61 13 l55 0 0 -220z m500 0 l0
-220 -55 0 -55 0 0 220 0 220 55 0 55 0 0 -220z m510 0 l0 -220 -55 0 -55 0 0
220 0 220 55 0 55 0 0 -220z m-6830 -470 l0 -200 -80 0 -80 0 0 200 0 200 80
0 80 0 0 -200z m658 -2 l2 -198 -85 0 -85 0 0 193 c0 107 3 197 7 201 4 4 41
5 83 4 l75 -3 3 -197z m652 2 l0 -200 -80 0 -80 0 0 200 0 200 80 0 80 0 0
-200z m658 -2 l2 -198 -85 0 -85 0 0 193 c0 107 3 197 7 201 4 4 41 5 83 4
l75 -3 3 -197z m3342 -433 l0 -215 -55 0 -55 0 0 215 0 215 55 0 55 0 0 -215z
m510 0 l0 -215 -60 0 -60 0 0 215 0 215 60 0 60 0 0 -215z m500 0 l0 -215 -55
0 -55 0 0 215 0 215 55 0 55 0 0 -215z"/>
<path d="M5560 12780 l0 -810 -535 0 -535 0 0 -520 0 -520 -395 0 -395 0 0
655 0 655 -505 0 -505 0 0 -560 0 -560 -465 0 -465 0 0 -390 0 -390 2520 0
2520 0 0 1625 0 1625 -620 0 -620 0 0 -810z"/>
</g>
</svg>
